HIERARCHY
ROOT root
{
	OFFSET	0	13.1	24.9
	CHANNELS 6  Xposition Yposition Zposition Xrotation Yrotation Zrotation
	JOINT spine_1
	{
		OFFSET	0	9.99999	0
		CHANNELS 3  Xrotation Yrotation Zrotation
		JOINT spine_2
		{
			OFFSET	0	112	-10
			CHANNELS 3  Xrotation Yrotation Zrotation
			JOINT spine_3
			{
				OFFSET	0	206.5	19.3
				CHANNELS 3  Xrotation Yrotation Zrotation
				JOINT spine_4
				{
					OFFSET	0	110.4	14.6
					CHANNELS 3  Xrotation Yrotation Zrotation
					JOINT neck_1
					{
						OFFSET	0	71.8	-50.3
						CHANNELS 3  Xrotation Yrotation Zrotation
						JOINT neck_2
						{
							OFFSET	0	86.2	-25.8
							CHANNELS 3  Xrotation Yrotation Zrotation
							JOINT head_ee
							{
								OFFSET	0	179.8	-8.7
								CHANNELS 3  Xrotation Yrotation Zrotation
								End Site
								{
									OFFSET	1	0	0
								}
							}
						}
					}
					JOINT left_clavicle
					{
						OFFSET	-43.2	22.4	-70.8
						CHANNELS 3  Xrotation Yrotation Zrotation
						JOINT left_shoulder
						{
							OFFSET	-93.9	-5.79999	48.7
							CHANNELS 3  Xrotation Yrotation Zrotation
							JOINT left_elbow
							{
								OFFSET	-291.4	-30.8	15.2
								CHANNELS 3  Xrotation Yrotation Zrotation
								JOINT left_lowarm_twist
								{
									OFFSET	-110.7	-3.89999	13.6
									CHANNELS 3  Xrotation Yrotation Zrotation
									JOINT left_hand
									{
										OFFSET	-110.7	-3.89999	13.6
										CHANNELS 3  Xrotation Yrotation Zrotation
										JOINT left_ee
										{
											OFFSET	-80.8	-5.10001	12.1
											CHANNELS 3  Xrotation Yrotation Zrotation
											End Site
											{
												OFFSET	1	0	0
											}
										}
									}
								}
							}
						}
					}
					JOINT right_clavicle
					{
						OFFSET	43.2	22.4	-70.8
						CHANNELS 3  Xrotation Yrotation Zrotation
						JOINT right_shoulder
						{
							OFFSET	93.9	-5.79999	48.7
							CHANNELS 3  Xrotation Yrotation Zrotation
							JOINT right_elbow
							{
								OFFSET	291.4	-30.8	15.2
								CHANNELS 3  Xrotation Yrotation Zrotation
								JOINT right_lowarm_twist
								{
									OFFSET	110.7	-3.89999	13.6
									CHANNELS 3  Xrotation Yrotation Zrotation
									JOINT right_hand
									{
										OFFSET	110.7	-3.89999	13.6
										CHANNELS 3  Xrotation Yrotation Zrotation
										JOINT right_ee
										{
											OFFSET	80.8	-5.10001	12.1
											CHANNELS 3  Xrotation Yrotation Zrotation
											End Site
											{
												OFFSET	1	0	0
											}
										}
									}
								}
							}
						}
					}
				}
			}
		}
	}
	JOINT left_hip
	{
		OFFSET	-82.8	-127.5	0.300001
		CHANNELS 3  Xrotation Yrotation Zrotation
		JOINT left_knee
		{
			OFFSET	-28.2	-396.7	2.2
			CHANNELS 3  Xrotation Yrotation Zrotation
			JOINT left_ankle
			{
				OFFSET	-11.7	-411.3	35.4
				CHANNELS 3  Xrotation Yrotation Zrotation
				JOINT left_toes
				{
					OFFSET	0	-60	-88.6
					CHANNELS 3  Xrotation Yrotation Zrotation
					JOINT left_foot_ee
					{
						OFFSET	-22.5	-16.5	-42.2
						CHANNELS 3  Xrotation Yrotation Zrotation
						End Site
						{
							OFFSET	1	0	0
						}
					}
				}
			}
		}
	}
	JOINT right_hip
	{
		OFFSET	82.8	-127.5	0.300001
		CHANNELS 3  Xrotation Yrotation Zrotation
		JOINT right_knee
		{
			OFFSET	28.2	-396.7	2.2
			CHANNELS 3  Xrotation Yrotation Zrotation
			JOINT right_ankle
			{
				OFFSET	11.7	-411.3	35.4
				CHANNELS 3  Xrotation Yrotation Zrotation
				JOINT right_toes
				{
					OFFSET	0	-60	-88.6
					CHANNELS 3  Xrotation Yrotation Zrotation
					JOINT right_foot_ee
					{
						OFFSET	22.5	-16.5	-42.2
						CHANNELS 3  Xrotation Yrotation Zrotation
						End Site
						{
							OFFSET	1	0	0
						}
					}
				}
			}
		}
	}
}
MOTION
Frames: 7
Frame Time: 0.02
2651.34 762.258 -596.51 -171.172 -63.3523 -177.746 3.69754 0.241705 1.41179 3.69864 0.151389 1.4243 3.70186 -0.0590684 1.43111 3.69904 0.167666 1.42248 -19.539 6.23002 2.07885 -19.6905 10.9347 4.49854 -0.0 0.0 -0.0 3.23644 16.7498 7.01283 -37.8722 -24.8402 63.2391 0.639011 -17.5651 0.0987261 -5.03344 -0.20431 0.60991 0.893528 26.2927 15.5108 -0.0 0.0 -0.0 5.17304 13.5976 -9.31461 -4.79756 15.9164 -63.9295 1.53797 37.2999 -0.519102 37.5836 0.229584 4.71059 -0.0557808 -3.6538 -1.16348 0.0 0.0 0.0 32.796 12.4125 3.25159 -63.6586 -2.60773 8.91579 3.72854 22.5771 -0.557775 -24.9748 0.0 0.0 -0.0 0.0 -0.0 11.6598 18.0821 1.91452 -8.48379 -0.255231 -1.2758 13.1283 -0.520546 1.85943 -6.59354 0.0 0.0 0.0 0.0 0.0 
2668.89 757.48 -589.102 -170.131 -65.4868 -177.084 3.89633 0.234049 1.36156 3.89735 0.146943 1.37369 3.90032 -0.051263 1.38058 3.8977 0.167396 1.37135 -17.8786 6.32236 2.00014 -18.012 11.0714 4.28719 -0.0 0.0 -0.0 2.96572 16.9137 6.59434 -39.8228 -24.9515 62.9461 0.688002 -18.82 0.114023 -5.27549 -0.21548 0.638774 0.94157 25.39 15.5155 -0.0 0.0 -0.0 5.00914 14.903 -8.8714 -4.36847 15.7167 -63.68 1.59736 38.3512 -0.555529 36.8638 0.19627 4.6248 0.22564 -1.51961 -2.13993 0.0 0.0 0.0 33.5605 10.5573 2.00956 -59.9246 -2.19184 8.51713 -1.57069 22.6086 0.23789 -29.284 0.0 0.0 -0.0 0.0 -0.0 10.3471 15.6995 2.68641 -8.63833 -0.258118 -1.29934 16.1769 -0.663932 2.26175 -5.13754 0.0 0.0 0.0 0.0 0.0 
2689.27 752.462 -581.973 -170.62 -65.6089 -177.906 3.90281 0.297039 1.39023 3.90386 0.207983 1.40631 3.90839 0.00469593 1.42159 3.90564 0.229128 1.40302 -17.9728 6.7779 1.96572 -18.1334 11.9714 4.44424 -0.0 0.0 -0.0 2.8482 17.4296 6.43058 -41.6841 -24.7277 62.6573 0.706538 -19.29 0.120074 -4.99971 -0.202764 0.605886 0.860958 24.7346 14.8377 -0.0 0.0 -0.0 4.79447 14.5404 -8.44152 -3.17788 15.8089 -62.786 1.78651 41.5045 -0.676975 37.3354 0.217972 4.68105 0.135834 0.159428 -0.840255 0.0 0.0 0.0 34.1387 8.53241 1.0155 -58.0836 -1.99665 8.31094 -6.27813 20.1211 0.949733 -31.8802 0.0 0.0 -0.0 0.0 -0.0 8.67715 15.9835 3.30891 -8.36325 -0.252934 -1.25745 18.5219 -0.302974 2.56457 -4.75199 0.0 0.0 0.0 0.0 0.0 
2699.04 749.842 -572.789 -172.066 -65.853 -178.459 3.91777 0.313243 1.38893 3.91881 0.224236 1.40604 3.92374 0.0212072 1.42365 3.921 0.245757 1.40244 -17.7489 8.45082 1.01782 -18.0409 15.6934 4.20013 -0.0 0.0 -0.0 2.95592 16.7422 6.57284 -42.395 -24.667 62.3659 0.64142 -17.6273 0.0994543 -3.23967 -0.125353 0.394611 1.22867 22.6319 16.3871 -0.0 0.0 -0.0 5.73186 16.1423 -10.3261 -3.42254 12.9512 -61.7694 1.89174 43.1361 -0.747828 37.0172 0.203276 4.64311 0.719617 4.65069 -2.87923 0.0 0.0 0.0 33.7404 -0.667157 1.44732 -46.0964 -0.899443 6.82971 -14.1123 21.5665 2.16797 -39.9746 0.0 0.0 -0.0 0.0 -0.0 7.40341 13.6239 2.28339 -8.21064 -0.249972 -1.23422 19.9382 0.594405 2.74785 -4.19014 0.0 0.0 0.0 0.0 0.0 
2715.2 750.854 -557.962 -171.413 -65.1402 -177.386 3.67811 0.343893 1.3678 3.67912 0.256168 1.3869 3.68484 0.0496763 1.40948 3.68217 0.271633 1.38396 -18.0157 9.8248 2.88579 -18.3607 17.3404 6.52345 -0.0 0.0 -0.0 2.89747 16.1564 6.45879 -42.267 -24.7303 62.5213 0.595542 -16.437 0.0860158 -1.26808 -0.0464022 0.155285 1.19672 21.3993 15.8089 -0.0 0.0 -0.0 6.05643 16.6732 -10.9855 -3.61001 13.4974 -61.2813 2.08035 45.8563 -0.880059 35.9321 0.154758 4.51314 0.978629 6.04437 -4.04203 0.0 0.0 0.0 34.0659 -2.55046 -0.315704 -33.6516 -0.113029 5.08966 -20.9592 24.4105 3.27421 -40.1481 0.0 0.0 -0.0 0.0 -0.0 6.72357 12.4482 1.40987 -8.16224 -0.249019 -1.22685 20.8133 0.908151 2.85843 -3.75044 0.0 0.0 0.0 0.0 0.0 
2726.42 750.155 -547.816 -171.342 -64.2459 -176.59 3.5693 0.412735 1.27745 3.57015 0.330619 1.30111 3.57729 0.133433 1.33581 3.57496 0.342707 1.29798 -17.3412 10.889 2.68783 -17.7604 19.4437 6.6533 -0.0 0.0 -0.0 3.19353 15.9921 6.92211 -42.4326 -24.5109 62.2611 0.534955 -14.8425 0.0696805 -0.182423 -0.00646309 0.0224008 1.2767 20.4613 16.0065 -0.0 0.0 -0.0 6.05451 17.3825 -10.9287 -3.1928 13.7729 -62.1248 2.21104 47.5975 -0.975224 35.2052 0.123637 4.42558 1.38099 8.70437 -5.63677 0.0 0.0 0.0 33.744 -2.08608 -1.39971 -24.325 0.219283 3.69848 -25.9902 25.0422 4.07481 -40.8339 0.0 0.0 -0.0 0.0 -0.0 6.58993 11.758 0.127395 -8.39034 -0.253454 -1.26157 22.2062 1.31927 3.03159 -3.18052 0.0 0.0 0.0 0.0 0.0 
2743.12 747.875 -545.369 -169.482 -63.6615 -174.598 3.54927 0.302146 0.852786 3.54964 0.247271 0.870282 3.55324 0.114694 0.897427 3.5522 0.254981 0.868055 -16.4355 11.2559 1.6808 -16.8836 20.6433 5.69472 -0.0 0.0 -0.0 3.6042 15.7332 7.56943 -42.9391 -24.8063 63.4618 0.564537 -15.6241 0.0774534 1.17189 0.039814 -0.144374 1.61997 19.6947 17.9173 -0.0 0.0 -0.0 7.25276 17.1674 -13.5399 -3.80136 12.7295 -58.3709 2.27216 48.374 -1.02064 33.1993 0.0435612 4.18201 1.28021 9.48475 -4.61856 0.0 0.0 0.0 32.6547 -3.98051 -1.37369 -18.2957 0.312029 2.77838 -24.8442 25.461 3.90401 -40.1509 0.0 0.0 -0.0 0.0 -0.0 6.85791 11.975 -0.221012 -9.75597 -0.277108 -1.46978 23.2604 1.18989 3.15725 -1.71058 0.0 0.0 0.0 0.0 0.0 
